# xmcd CD database file
#
# Track frame offsets:
#	150
#	16533
#	35417
#	47836
#	64797
#	82445
#	99778
#	111170
#	128956
#	146666
#	168798
#	194066
#
# Disc length: 2794 seconds
#
# Revision: 1
# Processed by: cddbd v1.5.2PL0 Copyright (c) Steve Scherf et al.
# Submitted via: CDex 1.72
#
DISCID=a20ae80c
DTITLE=Reddick, Paul [CDN-08-Sugar Bird-blues) - Sugar Bird
DYEAR=2008
DGENRE=Blues
TTITLE0=Morning Bell
TTITLE1=I Will Vanish
TTITLE2=Devilment
TTITLE3=Blue Wings
TTITLE4=John Lennon In New Orleans
TTITLE5=It's Later Than You Think
TTITLE6=Breathless Girls
TTITLE7=Wishing Song
TTITLE8=Every Temptation
TTITLE9=Climbing Up The Hill
TTITLE10=If By This
TTITLE11=Block Of Wood
EXTD=YEAR: 2008
EXTT0=
EXTT1=
EXTT2=
EXTT3=
EXTT4=
EXTT5=
EXTT6=
EXTT7=
EXTT8=
EXTT9=
EXTT10=
EXTT11=
PLAYORDER=
